HIERARCHY
ROOT mixamorig:Hips
{
	OFFSET 0.000000 201.639420 0.000000
	CHANNELS 6 Xposition Yposition Zposition Xrotation Yrotation Zrotation
	JOINT mixamorig:Spine
	{
		OFFSET 0.006200 19.524994 -2.481800
		CHANNELS 3 Xrotation Yrotation Zrotation
		JOINT mixamorig:Spine1
		{
			OFFSET -0.000900 22.835007 -2.825400
			CHANNELS 3 Xrotation Yrotation Zrotation
			JOINT mixamorig:Spine2
			{
				OFFSET -0.020600 26.552490 -3.193300
				CHANNELS 3 Xrotation Yrotation Zrotation
				JOINT mixamorig:Neck
				{
					OFFSET -0.060000 30.701813 1.352200
					CHANNELS 3 Xrotation Yrotation Zrotation
					JOINT mixamorig:Head
					{
						OFFSET -0.087200 22.547607 3.670900
						CHANNELS 3 Xrotation Yrotation Zrotation
						JOINT mixamorig:HeadTop_End
						{
							OFFSET -0.830600 40.355194 7.893500
							CHANNELS 3 Xrotation Yrotation Zrotation
							End Site
							{
								OFFSET 0.000000 30.592346 0.000000
							}
						}
						JOINT mixamorig:RightEye
						{
							OFFSET -6.302100 18.118591 16.197100
							CHANNELS 3 Xrotation Yrotation Zrotation
							End Site
							{
								OFFSET 0.000000 30.592346 0.000000
							}
						}
						JOINT mixamorig:LeftEye
						{
							OFFSET 6.741500 18.382690 16.401899
							CHANNELS 3 Xrotation Yrotation Zrotation
							End Site
							{
								OFFSET 0.000000 30.592346 0.000000
							}
						}
					}
				}
				JOINT mixamorig:LeftShoulder
				{
					OFFSET 11.924900 18.230499 1.425400
					CHANNELS 3 Xrotation Yrotation Zrotation
					JOINT mixamorig:LeftArm
					{
						OFFSET 25.435989 -0.697632 -5.229300
						CHANNELS 3 Xrotation Yrotation Zrotation
						JOINT mixamorig:LeftForeArm
						{
							OFFSET 54.684776 0.000000 0.000000
							CHANNELS 3 Xrotation Yrotation Zrotation
							JOINT mixamorig:LeftHand
							{
								OFFSET 55.098175 0.000000 0.000000
								CHANNELS 3 Xrotation Yrotation Zrotation
								JOINT mixamorig:LeftHandMiddle1
								{
									OFFSET 23.369751 0.000000 0.000000
									CHANNELS 3 Xrotation Yrotation Zrotation
									JOINT mixamorig:LeftHandMiddle2
									{
										OFFSET 6.378677 0.000000 0.000000
										CHANNELS 3 Xrotation Yrotation Zrotation
										JOINT mixamorig:LeftHandMiddle3
										{
											OFFSET 6.148331 0.000000 0.000000
											CHANNELS 3 Xrotation Yrotation Zrotation
											JOINT mixamorig:LeftHandMiddle4
											{
												OFFSET 6.582504 0.000000 0.000000
												CHANNELS 3 Xrotation Yrotation Zrotation
												End Site
												{
													OFFSET -1.168900 6.395691 1.028606
												}
											}
										}
									}
								}
								JOINT mixamorig:LeftHandThumb1
								{
									OFFSET 7.235672 -3.848206 5.434273
									CHANNELS 3 Xrotation Yrotation Zrotation
									JOINT mixamorig:LeftHandThumb2
									{
										OFFSET 6.568451 -3.792297 3.792300
										CHANNELS 3 Xrotation Yrotation Zrotation
										JOINT mixamorig:LeftHandThumb3
										{
											OFFSET 6.063080 -3.500519 3.500518
											CHANNELS 3 Xrotation Yrotation Zrotation
											JOINT mixamorig:LeftHandThumb4
											{
												OFFSET 4.793182 -2.767334 2.767349
												CHANNELS 3 Xrotation Yrotation Zrotation
												End Site
												{
													OFFSET 0.101639 6.054260 1.275483
												}
											}
										}
									}
								}
								JOINT mixamorig:LeftHandIndex1
								{
									OFFSET 23.101074 -0.309540 4.992809
									CHANNELS 3 Xrotation Yrotation Zrotation
									JOINT mixamorig:LeftHandIndex2
									{
										OFFSET 6.226883 0.000000 0.000000
										CHANNELS 3 Xrotation Yrotation Zrotation
										JOINT mixamorig:LeftHandIndex3
										{
											OFFSET 6.094330 0.000000 0.000000
											CHANNELS 3 Xrotation Yrotation Zrotation
											JOINT mixamorig:LeftHandIndex4
											{
												OFFSET 5.482605 0.000000 0.000000
												CHANNELS 3 Xrotation Yrotation Zrotation
												End Site
												{
													OFFSET -1.427902 5.233032 0.797164
												}
											}
										}
									}
								}
								JOINT mixamorig:LeftHandRing1
								{
									OFFSET 22.299240 0.021149 -3.964172
									CHANNELS 3 Xrotation Yrotation Zrotation
									JOINT mixamorig:LeftHandRing2
									{
										OFFSET 6.321869 0.000000 0.000000
										CHANNELS 3 Xrotation Yrotation Zrotation
										JOINT mixamorig:LeftHandRing3
										{
											OFFSET 5.899796 0.000000 0.000000
											CHANNELS 3 Xrotation Yrotation Zrotation
											JOINT mixamorig:LeftHandRing4
											{
												OFFSET 6.517899 0.000000 0.000000
												CHANNELS 3 Xrotation Yrotation Zrotation
												End Site
												{
													OFFSET -1.637299 6.232208 0.980890
												}
											}
										}
									}
								}
								JOINT mixamorig:LeftHandPinky1
								{
									OFFSET 20.463791 -0.302338 -8.562233
									CHANNELS 3 Xrotation Yrotation Zrotation
									JOINT mixamorig:LeftHandPinky2
									{
										OFFSET 6.908646 0.000000 0.000000
										CHANNELS 3 Xrotation Yrotation Zrotation
										JOINT mixamorig:LeftHandPinky3
										{
											OFFSET 4.622849 0.000000 0.000000
											CHANNELS 3 Xrotation Yrotation Zrotation
											JOINT mixamorig:LeftHandPinky4
											{
												OFFSET 5.216080 0.000000 0.000000
												CHANNELS 3 Xrotation Yrotation Zrotation
												End Site
												{
													OFFSET -0.606308 5.116241 0.814926
												}
											}
										}
									}
								}
							}
						}
					}
				}
				JOINT mixamorig:RightShoulder
				{
					OFFSET -12.001300 18.284088 1.348900
					CHANNELS 3 Xrotation Yrotation Zrotation
					JOINT mixamorig:RightArm
					{
						OFFSET -25.308500 -0.751312 -5.164599
						CHANNELS 3 Xrotation Yrotation Zrotation
						JOINT mixamorig:RightForeArm
						{
							OFFSET -54.684429 0.000000 0.000000
							CHANNELS 3 Xrotation Yrotation Zrotation
							JOINT mixamorig:RightHand
							{
								OFFSET -55.150291 0.000000 0.000000
								CHANNELS 3 Xrotation Yrotation Zrotation
								JOINT mixamorig:RightHandMiddle1
								{
									OFFSET -23.317566 0.000000 0.000000
									CHANNELS 3 Xrotation Yrotation Zrotation
									JOINT mixamorig:RightHandMiddle2
									{
										OFFSET -6.378403 0.000000 0.000000
										CHANNELS 3 Xrotation Yrotation Zrotation
										JOINT mixamorig:RightHandMiddle3
										{
											OFFSET -6.148193 0.000000 0.000000
											CHANNELS 3 Xrotation Yrotation Zrotation
											JOINT mixamorig:RightHandMiddle4
											{
												OFFSET -6.583389 0.000000 0.000000
												CHANNELS 3 Xrotation Yrotation Zrotation
												End Site
												{
													OFFSET 1.171692 6.395905 1.029786
												}
											}
										}
									}
								}
								JOINT mixamorig:RightHandThumb1
								{
									OFFSET -7.190521 -3.860474 5.435846
									CHANNELS 3 Xrotation Yrotation Zrotation
									JOINT mixamorig:RightHandThumb2
									{
										OFFSET -6.567429 -3.791718 3.791708
										CHANNELS 3 Xrotation Yrotation Zrotation
										JOINT mixamorig:RightHandThumb3
										{
											OFFSET -6.062469 -3.500153 3.500166
											CHANNELS 3 Xrotation Yrotation Zrotation
											JOINT mixamorig:RightHandThumb4
											{
												OFFSET -4.792618 -2.767029 2.767022
												CHANNELS 3 Xrotation Yrotation Zrotation
												End Site
												{
													OFFSET -0.100327 6.053253 1.276754
												}
											}
										}
									}
								}
								JOINT mixamorig:RightHandIndex1
								{
									OFFSET -23.048981 -0.310791 4.992554
									CHANNELS 3 Xrotation Yrotation Zrotation
									JOINT mixamorig:RightHandIndex2
									{
										OFFSET -6.227539 0.000000 0.000000
										CHANNELS 3 Xrotation Yrotation Zrotation
										JOINT mixamorig:RightHandIndex3
										{
											OFFSET -6.095047 0.000000 0.000000
											CHANNELS 3 Xrotation Yrotation Zrotation
											JOINT mixamorig:RightHandIndex4
											{
												OFFSET -5.484772 0.000000 0.000000
												CHANNELS 3 Xrotation Yrotation Zrotation
												End Site
												{
													OFFSET 1.420593 5.237305 0.797056
												}
											}
										}
									}
								}
								JOINT mixamorig:RightHandRing1
								{
									OFFSET -22.246323 0.020569 -3.963762
									CHANNELS 3 Xrotation Yrotation Zrotation
									JOINT mixamorig:RightHandRing2
									{
										OFFSET -6.322128 0.000000 0.000000
										CHANNELS 3 Xrotation Yrotation Zrotation
										JOINT mixamorig:RightHandRing3
										{
											OFFSET -5.900024 0.000000 0.000000
											CHANNELS 3 Xrotation Yrotation Zrotation
											JOINT mixamorig:RightHandRing4
											{
												OFFSET -6.518356 0.000000 0.000000
												CHANNELS 3 Xrotation Yrotation Zrotation
												End Site
												{
													OFFSET 1.636398 6.232697 0.982186
												}
											}
										}
									}
								}
								JOINT mixamorig:RightHandPinky1
								{
									OFFSET -20.411011 -0.303314 -8.561701
									CHANNELS 3 Xrotation Yrotation Zrotation
									JOINT mixamorig:RightHandPinky2
									{
										OFFSET -6.907349 0.000000 0.000000
										CHANNELS 3 Xrotation Yrotation Zrotation
										JOINT mixamorig:RightHandPinky3
										{
											OFFSET -4.623840 0.000000 0.000000
											CHANNELS 3 Xrotation Yrotation Zrotation
											JOINT mixamorig:RightHandPinky4
											{
												OFFSET -5.218353 0.000000 0.000000
												CHANNELS 3 Xrotation Yrotation Zrotation
												End Site
												{
													OFFSET 0.602097 5.118835 0.816273
												}
											}
										}
									}
								}
							}
						}
					}
				}
			}
		}
	}
	JOINT mixamorig:LeftUpLeg
	{
		OFFSET 18.168400 -13.561905 -0.039000
		CHANNELS 3 Xrotation Yrotation Zrotation
		JOINT mixamorig:LeftLeg
		{
			OFFSET 0.577358 -80.825211 -3.695000
			CHANNELS 3 Xrotation Yrotation Zrotation
			JOINT mixamorig:LeftFoot
			{
				OFFSET -0.577356 -83.370262 -6.520700
				CHANNELS 3 Xrotation Yrotation Zrotation
				JOINT mixamorig:LeftToeBase
				{
					OFFSET 0.750401 -20.798306 25.135401
					CHANNELS 3 Xrotation Yrotation Zrotation
					JOINT mixamorig:LeftToe_End
					{
						OFFSET -0.000500 0.001200 19.917799
						CHANNELS 3 Xrotation Yrotation Zrotation
						End Site
						{
							OFFSET 0.000000 19.917805 0.000000
						}
					}
				}
			}
		}
	}
	JOINT mixamorig:RightUpLeg
	{
		OFFSET -18.162500 -13.585098 -0.041000
		CHANNELS 3 Xrotation Yrotation Zrotation
		JOINT mixamorig:RightLeg
		{
			OFFSET -0.595024 -80.945297 -3.631900
			CHANNELS 3 Xrotation Yrotation Zrotation
			JOINT mixamorig:RightFoot
			{
				OFFSET 0.595024 -83.218193 -6.561200
				CHANNELS 3 Xrotation Yrotation Zrotation
				JOINT mixamorig:RightToeBase
				{
					OFFSET -0.753601 -20.807106 25.115000
					CHANNELS 3 Xrotation Yrotation Zrotation
					JOINT mixamorig:RightToe_End
					{
						OFFSET 0.000299 0.001700 19.918200
						CHANNELS 3 Xrotation Yrotation Zrotation
						End Site
						{
							OFFSET 0.000000 19.918203 0.000000
						}
					}
				}
			}
		}
	}
}
MOTION
Frames: 5
Frame Time: 0.033333
81.489487 198.919754 -120.597672 359.420755 -118.229017 -3.453284 0.786933 -0.520669 -0.593101 1.560655 -1.091940 -1.729137 1.560655 -1.091947 -1.729135 2.101467 0.518706 1.715796 -5.264353 17.652761 5.668922 0.000000 -0.000001 -0.000000 0.000000 -0.000001 -0.000000 0.000000 -0.000001 -0.000000 -0.020901 6.029788 -1.283876 29.831876 -21.874410 -45.189235 0.000021 -42.396511 0.000031 -23.847788 -9.380099 2.062318 0.087708 1.110507 -10.625374 0.497262 2.573648 -21.867622 0.034714 0.691966 -5.743730 -0.000001 -0.000000 0.000001 4.487891 19.474924 6.454606 3.939043 7.948712 0.746811 -0.579476 1.575000 2.538718 0.000000 0.000000 0.000004 0.133381 1.353872 -10.607614 0.496544 2.571871 -21.851638 0.034717 0.691961 -5.743720 -0.000000 -0.000002 -0.000003 0.135139 1.425148 -15.418549 0.731943 3.094212 -26.611189 0.115623 1.259027 -10.493014 0.000001 0.000001 -0.000003 1.184606 5.084168 -15.882831 0.789206 -0.872670 -27.943759 0.135658 1.362764 -11.368799 0.000000 -0.000001 -0.000004 -0.325988 -5.742954 -2.760359 -45.133309 4.717461 -27.901932 0.001167 94.098437 -0.001148 -16.633442 13.151977 10.588110 2.111896 -4.994709 45.818596 2.111915 -4.994735 45.818603 2.111894 -4.994707 45.818593 0.000000 -0.000002 0.000004 -1.931504 -3.912647 -6.265534 4.776984 -9.585709 -0.079799 -1.102621 -1.319244 -2.119550 -0.000003 0.000000 0.000002 2.111910 -4.994710 45.818599 2.111902 -4.994699 45.818610 2.111889 -4.994718 45.818582 -0.000001 -0.000002 -0.000002 2.111915 -4.994724 45.818603 2.111899 -4.994719 45.818589 2.111903 -4.994700 45.818599 -0.000004 0.000001 0.000000 2.111894 -4.994707 45.818596 2.111905 -4.994722 45.818599 2.111909 -4.994710 45.818613 0.000001 0.000001 -0.000001 -26.940016 6.349502 8.712982 38.923079 10.052990 -0.304381 6.809216 29.786837 -8.133354 -15.327108 -0.000015 0.000004 0.000000 0.000002 0.000000 -18.865896 -9.955320 -2.550727 23.450724 -9.853455 0.067694 -1.224838 -29.620276 -5.543598 -4.096686 -0.000003 -0.000004 -0.000000 0.000001 -0.000000 
81.663628 199.121658 -121.489426 357.516799 -115.268800 -5.467103 0.998865 -0.516708 -0.921266 1.981204 -1.104046 -2.391231 1.981204 -1.104065 -2.391232 1.527249 0.811217 1.136013 -2.352121 23.829622 3.671103 0.000000 0.000000 0.000000 0.000000 0.000000 0.000000 0.000000 0.000000 0.000000 -0.093132 6.744485 -0.927580 28.957157 -19.080606 -46.987289 -0.000029 -45.651065 -0.000041 -22.986211 -7.925791 9.546958 0.087698 1.110497 -10.625372 0.497265 2.573664 -21.867631 0.034708 0.691955 -5.743717 0.000001 -0.000000 -0.000000 4.487891 19.474920 6.454596 3.939042 7.948713 0.746806 -0.579478 1.574999 2.538716 0.000006 0.000001 0.000001 0.133383 1.353881 -10.607633 0.496543 2.571852 -21.851594 0.034719 0.691953 -5.743720 -0.000000 0.000001 -0.000004 0.135137 1.425134 -15.418534 0.731928 3.094209 -26.611179 0.115616 1.259044 -10.493047 -0.000002 -0.000001 -0.000002 1.184591 5.084164 -15.882823 0.789235 -0.872643 -27.943754 0.135652 1.362748 -11.368801 0.000004 -0.000001 -0.000002 -0.371062 -6.145367 -3.033226 -49.575094 7.895658 -28.740910 -0.000870 97.430210 0.000778 -23.225507 10.919037 7.936478 2.772893 -5.558723 52.996660 2.772926 -5.558743 52.996677 2.772914 -5.558704 52.996688 0.000005 0.000001 -0.000001 -1.912182 -3.833438 -6.340277 4.743069 -9.360432 -0.115542 -1.143616 -0.973513 -2.114615 -0.000001 -0.000001 0.000003 2.772899 -5.558719 52.996671 2.772916 -5.558704 52.996671 2.772908 -5.558717 52.996684 -0.000003 0.000000 -0.000000 2.772901 -5.558735 52.996667 2.772919 -5.558730 52.996671 2.772902 -5.558698 52.996688 -0.000000 -0.000001 0.000004 2.772899 -5.558715 52.996671 2.772916 -5.558729 52.996671 2.772905 -5.558711 52.996684 -0.000001 -0.000002 0.000001 -27.648143 6.769732 9.484784 37.975719 9.869125 -0.280082 8.045655 29.862106 -10.503950 -16.720622 -0.000007 -0.000000 -0.000000 0.000001 0.000000 -18.876836 -9.231080 -1.763893 23.194417 -10.199995 0.055891 -1.826222 -29.825490 -6.818353 -3.054141 -0.000000 0.000001 -0.000000 0.000001 0.000000 
81.996643 199.119400 -121.902008 357.094912 -111.816706 -6.253717 1.430366 -0.393086 -1.283896 2.844605 -0.885099 -3.139928 2.844602 -0.885070 -3.139933 1.903743 1.139035 1.015983 -1.344507 28.454717 0.791256 0.000000 -0.000000 -0.000000 0.000000 -0.000000 -0.000000 0.000000 -0.000000 -0.000000 -0.128308 6.148003 -0.070759 26.721379 -14.906598 -50.032133 0.000021 -48.771051 0.000029 -19.654793 -7.037821 11.482768 0.087714 1.110511 -10.625370 0.497267 2.573643 -21.867651 0.034709 0.691953 -5.743718 0.000006 0.000002 0.000001 4.487895 19.474942 6.454597 3.939037 7.948714 0.746807 -0.579473 1.574999 2.538714 0.000000 0.000001 0.000001 0.133376 1.353878 -10.607632 0.496541 2.571857 -21.851612 0.034713 0.691953 -5.743711 0.000000 -0.000002 -0.000003 0.135149 1.425154 -15.418561 0.731912 3.094208 -26.611191 0.115630 1.259045 -10.493032 0.000002 0.000002 0.000001 1.184603 5.084163 -15.882826 0.789240 -0.872635 -27.943779 0.135647 1.362751 -11.368791 -0.000002 0.000000 -0.000000 -0.405603 -6.571130 -2.967731 -51.974639 9.320772 -29.152760 -0.000113 100.473900 0.000145 -21.168780 9.549878 -7.283677 3.009287 -5.728405 55.400262 3.009326 -5.728422 55.400300 3.009315 -5.728392 55.400262 0.000001 -0.000002 0.000001 -1.895132 -3.764211 -6.406474 4.713675 -9.162433 -0.146397 -1.179440 -0.670021 -2.109827 0.000003 0.000003 0.000000 3.009291 -5.728399 55.400272 3.009286 -5.728386 55.400262 3.009329 -5.728400 55.400279 -0.000001 0.000003 0.000002 3.009293 -5.728413 55.400265 3.009308 -5.728413 55.400262 3.009310 -5.728390 55.400276 0.000001 0.000004 0.000003 3.009286 -5.728393 55.400272 3.009315 -5.728407 55.400279 3.009309 -5.728394 55.400272 -0.000001 0.000000 0.000001 -28.063980 7.081351 9.986443 37.577782 9.937113 -0.314408 8.761837 29.993529 -11.727845 -17.923195 -0.000005 -0.000000 0.000000 -0.000000 -0.000000 -18.458907 -8.726243 -1.058414 23.386892 -10.129555 0.056198 -2.431813 -29.847612 -7.552064 -3.657642 0.000000 -0.000002 -0.000000 -0.000001 -0.000001 
82.150948 199.103897 -122.008377 354.057308 -108.413612 -9.355991 1.777103 -0.217242 -1.544584 3.542853 -0.567944 -3.660545 3.542852 -0.567962 -3.660544 1.812202 1.290127 0.502466 0.719413 30.261109 -2.481118 0.000001 0.000001 -0.000000 0.000001 0.000001 -0.000000 0.000001 0.000001 -0.000000 -0.078362 5.913320 -0.454588 24.608359 -12.023631 -51.526148 -0.000015 -49.611619 -0.000011 -19.035160 -8.368452 9.458007 0.087696 1.110505 -10.625372 0.497262 2.573650 -21.867617 0.034710 0.691955 -5.743714 -0.000000 -0.000001 0.000000 4.487898 19.474917 6.454609 3.939045 7.948711 0.746806 -0.579472 1.575000 2.538718 0.000002 -0.000002 -0.000004 0.133386 1.353868 -10.607633 0.496549 2.571856 -21.851612 0.034713 0.691968 -5.743728 -0.000000 0.000001 -0.000000 0.135142 1.425146 -15.418549 0.731929 3.094207 -26.611180 0.115622 1.259041 -10.493049 -0.000001 -0.000001 0.000002 1.184607 5.084159 -15.882830 0.789240 -0.872647 -27.943766 0.135636 1.362738 -11.368800 0.000000 0.000001 0.000002 -0.492373 -6.865796 -3.823977 -56.212088 10.081486 -27.197499 -0.000354 104.089795 0.000363 -16.959522 8.468004 -14.938394 3.211787 -5.862227 57.405295 3.211789 -5.862234 57.405295 3.211801 -5.862233 57.405302 0.000005 0.000007 0.000006 -1.880473 -3.705421 -6.463457 4.688884 -8.993309 -0.172253 -1.209836 -0.411177 -2.105393 -0.000002 -0.000003 0.000002 3.211780 -5.862229 57.405295 3.211782 -5.862213 57.405274 3.211809 -5.862232 57.405315 -0.000002 0.000003 0.000003 3.211788 -5.862237 57.405295 3.211797 -5.862227 57.405288 3.211779 -5.862216 57.405295 -0.000001 0.000002 -0.000001 3.211790 -5.862216 57.405288 3.211784 -5.862235 57.405274 3.211811 -5.862219 57.405315 -0.000001 0.000002 0.000004 -29.264017 6.871088 9.542733 36.940897 9.875444 -0.334100 9.495723 30.046559 -12.614833 -18.734338 -0.000009 0.000000 -0.000000 -0.000002 -0.000000 -18.938807 -8.297922 -0.692459 23.771063 -10.052828 0.056973 -3.027025 -29.880333 -8.198466 -4.682454 0.000003 -0.000000 -0.000001 -0.000002 0.000001 
82.392899 199.115417 -121.905525 348.047398 -105.167804 -15.449178 1.992646 -0.127157 -1.730916 3.977056 -0.408548 -3.953161 3.977054 -0.408518 -3.953162 1.668782 1.537702 -0.054323 2.677880 32.282811 -4.292349 -0.000001 0.000001 0.000000 -0.000001 0.000001 0.000000 -0.000001 0.000001 0.000000 0.018775 5.825542 -1.544573 23.138688 -11.111116 -53.562675 -0.000013 -48.229205 0.000011 -16.988924 -8.508182 11.096418 0.087690 1.110511 -10.625377 0.497267 2.573658 -21.867628 0.034714 0.691979 -5.743736 0.000003 0.000002 0.000001 4.487880 19.474947 6.454596 3.939045 7.948712 0.746809 -0.579472 1.574996 2.538717 0.000001 0.000001 0.000002 0.133363 1.353874 -10.607627 0.496550 2.571871 -21.851616 0.034702 0.691950 -5.743717 -0.000001 -0.000000 -0.000001 0.135147 1.425157 -15.418544 0.731940 3.094205 -26.611170 0.115610 1.259050 -10.493052 -0.000000 0.000001 -0.000001 1.184603 5.084179 -15.882838 0.789222 -0.872639 -27.943776 0.135664 1.362771 -11.368789 0.000002 0.000001 -0.000001 -0.394134 -6.296082 -3.521120 -60.364324 11.195374 -24.482957 -0.000101 107.055613 0.000100 -14.887603 9.546685 -9.317664 3.411983 -5.984856 59.344932 3.411984 -5.984869 59.344918 3.411986 -5.984843 59.344932 0.000005 0.000000 -0.000003 -1.868445 -3.657503 -6.510474 4.668777 -8.854756 -0.193098 -1.234598 -0.199358 -2.101571 -0.000001 0.000002 0.000001 3.411985 -5.984849 59.344932 3.411980 -5.984831 59.344925 3.411999 -5.984840 59.344939 0.000002 0.000001 -0.000003 3.411994 -5.984855 59.344932 3.411974 -5.984861 59.344918 3.411987 -5.984817 59.344959 0.000001 0.000002 0.000000 3.411982 -5.984846 59.344932 3.411989 -5.984856 59.344939 3.411971 -5.984846 59.344925 0.000000 -0.000001 0.000001 -30.623099 5.951051 7.665783 35.391547 9.598127 -0.275535 7.938673 30.039633 -9.618581 -17.849892 0.000017 0.000004 0.000001 -0.000004 -0.000000 -19.867736 -8.275064 -0.437106 23.992134 -9.982544 0.049783 -3.344112 -29.919271 -8.630255 -5.315957 -0.000004 0.000004 -0.000000 -0.000002 0.000001 
